tugOfWar_states
nRows=12
nColumns=19

# SIMM Motion File Header:
name tugOfWar_states
datacolumns 19
datarows 12
otherdata 1
range 2.53605499 2.55468121
endheader
time	blockToGround_xRotation	blockToGround_yRotation	blockToGround_zRotation	blockToGround_xTranslation	blockToGround_yTranslation	blockToGround_zTranslation	blockToGround_xRotation_u	blockToGround_yRotation_u	blockToGround_zRotation_u	blockToGround_xTranslation_u	blockToGround_yTranslation_u	blockToGround_zTranslation_u	Liu.activation	Liu.fiber_length	Liu.active_motor_units	Liu.fatigued_motor_units	Thelen.activation	Thelen.fiber_length
      2.53605499	      0.00000000	     -0.00000000	     -0.00000000	      0.00236018	     -0.00019509	     -0.03362939	      0.00000000	     -0.00000000	     -0.00000000	      0.00673362	      0.00000041	     -0.00034999	      0.50716851	      0.06301901	      0.50716851	      0.00000000	      0.50716851	      0.12937686
      2.53769163	      0.00000000	     -0.00000000	     -0.00000000	      0.00237118	     -0.00019509	     -0.03362996	      0.00000000	     -0.00000000	     -0.00000000	      0.00670617	      0.00000041	     -0.00034672	      0.50814719	      0.06301766	      0.50814719	      0.00000000	      0.50814719	      0.12937641
      2.53932827	      0.00000000	     -0.00000000	     -0.00000000	      0.00238213	     -0.00019509	     -0.03363052	      0.00000000	     -0.00000000	     -0.00000000	      0.00667846	      0.00000041	     -0.00034359	      0.50814646	      0.06301633	      0.50814646	      0.00000000	      0.50814646	      0.12937600
      2.54097026	      0.00000000	     -0.00000000	     -0.00000000	      0.00239307	     -0.00019509	     -0.03363108	      0.00000000	     -0.00000000	     -0.00000000	      0.00665053	      0.00000040	     -0.00033967	      0.50793727	      0.06301530	      0.50793727	      0.00000000	      0.50793727	      0.12937590
      2.54341350	      0.00000000	     -0.00000000	     -0.00000000	      0.00240927	     -0.00019509	     -0.03363190	      0.00000000	     -0.00000000	     -0.00000000	      0.00660853	      0.00000044	     -0.00033495	      0.50866278	      0.06301375	      0.50866278	      0.00000000	      0.50866278	      0.12937567
      2.54499836	      0.00000000	     -0.00000000	     -0.00000000	      0.00241972	     -0.00019509	     -0.03363242	      0.00000000	     -0.00000000	     -0.00000000	      0.00658141	      0.00000040	     -0.00032758	      0.50837642	      0.06301266	      0.50837642	      0.00000000	      0.50837642	      0.12937551
      2.54664037	      0.00000000	     -0.00000000	     -0.00000000	      0.00243051	     -0.00019509	     -0.03363295	      0.00000000	     -0.00000000	     -0.00000000	      0.00655282	      0.00000041	     -0.00032382	      0.50956013	      0.06301135	      0.50956013	      0.00000000	      0.50956013	      0.12937504
      2.54828239	      0.00000000	     -0.00000000	     -0.00000000	      0.00244124	     -0.00019509	     -0.03363348	      0.00000000	     -0.00000000	     -0.00000000	      0.00652411	      0.00000039	     -0.00031911	      0.50907862	      0.06301016	      0.50907862	      0.00000000	      0.50907862	      0.12937476
      2.55001500	      0.00000000	     -0.00000000	     -0.00000000	      0.00245252	     -0.00019509	     -0.03363403	      0.00000000	     -0.00000000	     -0.00000000	      0.00649321	      0.00000042	     -0.00031828	      0.51023660	      0.06300880	      0.51023660	      0.00000000	      0.51023660	      0.12937426
      2.55174761	      0.00000000	     -0.00000000	     -0.00000000	      0.00246374	     -0.00019509	     -0.03363458	      0.00000000	     -0.00000000	     -0.00000000	      0.00646214	      0.00000039	     -0.00031577	      0.50957827	      0.06300757	      0.50957827	      0.00000000	      0.50957827	      0.12937397
      2.55321441	      0.00000000	     -0.00000000	     -0.00000000	      0.00247320	     -0.00019508	     -0.03363504	      0.00000000	     -0.00000000	     -0.00000000	      0.00643534	      0.00000041	     -0.00031646	      0.51088691	      0.06300644	      0.51088691	      0.00000000	      0.51088691	      0.12937353
      2.55468121	      0.00000000	     -0.00000000	     -0.00000000	      0.00248262	     -0.00019508	     -0.03363550	      0.00000000	     -0.00000000	     -0.00000000	      0.00640839	      0.00000040	     -0.00031571	      0.51071452	      0.06300542	      0.51071452	      0.00000000	      0.51071452	      0.12937327
